<mxfile host="Electron" agent="Mozilla/5.0 (X11; Linux x86_64) AppleWebKit/537.36 (KHTML, like Gecko) draw.io/27.0.9 Chrome/134.0.6998.205 Electron/35.4.0 Safari/537.36" version="27.0.9">
  <diagram name="Page-1" id="cWvD5KIBlXjUGnjaOg9U">
    <mxGraphModel dx="1996" dy="1208" grid="1" gridSize="10" guides="1" tooltips="1" connect="1" arrows="1" fold="1" page="1" pageScale="1" pageWidth="1169" pageHeight="827" math="0" shadow="0">
      <root>
        <mxCell id="0" />
        <mxCell id="1" parent="0" />
        <mxCell id="sInuWgfTN_hbzSe1saAp-6" value="" style="rounded=1;whiteSpace=wrap;html=1;shadow=1;strokeWidth=3;fillColor=none;fontColor=#ffffff;strokeColor=#A50040;dashed=1;" parent="1" vertex="1">
          <mxGeometry x="701" y="36" width="240" height="110" as="geometry" />
        </mxCell>
        <mxCell id="sInuWgfTN_hbzSe1saAp-5" value="" style="rounded=1;whiteSpace=wrap;html=1;shadow=1;strokeWidth=3;fillColor=default;fontColor=#ffffff;strokeColor=#A50040;dashed=1;" parent="1" vertex="1">
          <mxGeometry x="691" y="50" width="240" height="110" as="geometry" />
        </mxCell>
        <mxCell id="R0Js2lqDosAIfEtzN3Xw-24" value="" style="rounded=1;whiteSpace=wrap;html=1;shadow=1;strokeWidth=3;fillColor=default;fontColor=#ffffff;strokeColor=#A50040;" parent="1" vertex="1">
          <mxGeometry x="681" y="64" width="240" height="110" as="geometry" />
        </mxCell>
        <mxCell id="R0Js2lqDosAIfEtzN3Xw-11" value="" style="rounded=1;whiteSpace=wrap;html=1;shadow=1;strokeWidth=3;dashed=1;fillColor=none;fontColor=#ffffff;strokeColor=#005700;" parent="1" vertex="1">
          <mxGeometry x="180" y="77" width="320" height="210" as="geometry" />
        </mxCell>
        <mxCell id="R0Js2lqDosAIfEtzN3Xw-10" value="" style="rounded=1;whiteSpace=wrap;html=1;rotation=90;" parent="1" vertex="1">
          <mxGeometry x="200" y="117" width="120" height="60" as="geometry" />
        </mxCell>
        <mxCell id="R0Js2lqDosAIfEtzN3Xw-16" value="" style="rounded=1;whiteSpace=wrap;html=1;rotation=90;" parent="1" vertex="1">
          <mxGeometry x="280" y="117" width="120" height="60" as="geometry" />
        </mxCell>
        <mxCell id="R0Js2lqDosAIfEtzN3Xw-17" value="" style="rounded=1;whiteSpace=wrap;html=1;rotation=90;" parent="1" vertex="1">
          <mxGeometry x="360" y="117" width="120" height="60" as="geometry" />
        </mxCell>
        <mxCell id="R0Js2lqDosAIfEtzN3Xw-18" value="NODE" style="text;html=1;align=center;verticalAlign=middle;whiteSpace=wrap;rounded=0;rotation=90;fontStyle=1" parent="1" vertex="1">
          <mxGeometry x="230" y="117" width="60" height="30" as="geometry" />
        </mxCell>
        <mxCell id="R0Js2lqDosAIfEtzN3Xw-19" value="NODE" style="text;html=1;align=center;verticalAlign=middle;whiteSpace=wrap;rounded=0;rotation=90;fontStyle=1" parent="1" vertex="1">
          <mxGeometry x="310" y="117" width="60" height="30" as="geometry" />
        </mxCell>
        <mxCell id="R0Js2lqDosAIfEtzN3Xw-20" value="NODE" style="text;html=1;align=center;verticalAlign=middle;whiteSpace=wrap;rounded=0;rotation=90;fontStyle=1" parent="1" vertex="1">
          <mxGeometry x="390" y="117" width="60" height="30" as="geometry" />
        </mxCell>
        <mxCell id="R0Js2lqDosAIfEtzN3Xw-21" value="" style="rounded=1;whiteSpace=wrap;html=1;rotation=0;" parent="1" vertex="1">
          <mxGeometry x="280" y="217" width="120" height="60" as="geometry" />
        </mxCell>
        <mxCell id="R0Js2lqDosAIfEtzN3Xw-22" value="ROOT" style="text;html=1;align=center;verticalAlign=middle;whiteSpace=wrap;rounded=0;rotation=0;fontStyle=1" parent="1" vertex="1">
          <mxGeometry x="310" y="231" width="60" height="30" as="geometry" />
        </mxCell>
        <mxCell id="R0Js2lqDosAIfEtzN3Xw-23" value="Mesh" style="text;html=1;align=center;verticalAlign=middle;whiteSpace=wrap;rounded=0;fontStyle=1" parent="1" vertex="1">
          <mxGeometry x="180" y="87" width="60" height="30" as="geometry" />
        </mxCell>
        <mxCell id="R0Js2lqDosAIfEtzN3Xw-31" value="" style="rounded=1;whiteSpace=wrap;html=1;rotation=0;" parent="1" vertex="1">
          <mxGeometry x="761" y="103" width="120" height="60" as="geometry" />
        </mxCell>
        <mxCell id="R0Js2lqDosAIfEtzN3Xw-32" value="Socket" style="text;html=1;align=center;verticalAlign=middle;whiteSpace=wrap;rounded=0;rotation=0;" parent="1" vertex="1">
          <mxGeometry x="791" y="119" width="60" height="30" as="geometry" />
        </mxCell>
        <mxCell id="R0Js2lqDosAIfEtzN3Xw-33" value="TCP Socket Handler" style="text;html=1;align=center;verticalAlign=middle;whiteSpace=wrap;rounded=0;fontStyle=1" parent="1" vertex="1">
          <mxGeometry x="693" y="66" width="140" height="30" as="geometry" />
        </mxCell>
        <mxCell id="R0Js2lqDosAIfEtzN3Xw-37" value="Local Server Architecture (Embedded Linux)" style="text;html=1;align=center;verticalAlign=middle;whiteSpace=wrap;rounded=0;fontStyle=1;fontSize=14;" parent="1" vertex="1">
          <mxGeometry x="11" width="309" height="60" as="geometry" />
        </mxCell>
        <mxCell id="R0Js2lqDosAIfEtzN3Xw-41" value="" style="verticalLabelPosition=bottom;html=1;verticalAlign=top;strokeWidth=3;shape=mxgraph.lean_mapping.physical_pull;pointerEvents=1;fillColor=#d80073;fontColor=#ffffff;strokeColor=#A50040;" parent="1" vertex="1">
          <mxGeometry x="1010" y="174" width="100" height="100" as="geometry" />
        </mxCell>
        <mxCell id="R0Js2lqDosAIfEtzN3Xw-45" value="Asyncio&lt;div&gt;Event Loop&lt;/div&gt;" style="text;html=1;align=center;verticalAlign=middle;whiteSpace=wrap;rounded=0;fontStyle=1" parent="1" vertex="1">
          <mxGeometry x="1030" y="209" width="60" height="30" as="geometry" />
        </mxCell>
        <mxCell id="R0Js2lqDosAIfEtzN3Xw-46" value="" style="endArrow=classic;startArrow=classic;html=1;rounded=0;exitX=1;exitY=0.25;exitDx=0;exitDy=0;entryX=-0.004;entryY=0.591;entryDx=0;entryDy=0;strokeColor=default;strokeWidth=2;align=center;verticalAlign=middle;fontFamily=Helvetica;fontSize=11;fontColor=default;labelBackgroundColor=default;entryPerimeter=0;" parent="1" source="R0Js2lqDosAIfEtzN3Xw-11" target="R0Js2lqDosAIfEtzN3Xw-24" edge="1">
          <mxGeometry width="50" height="50" relative="1" as="geometry">
            <mxPoint x="560" y="400" as="sourcePoint" />
            <mxPoint x="610" y="350" as="targetPoint" />
          </mxGeometry>
        </mxCell>
        <mxCell id="R0Js2lqDosAIfEtzN3Xw-47" value="" style="endArrow=classic;startArrow=classic;html=1;rounded=0;entryX=0.954;entryY=0.996;entryDx=0;entryDy=0;entryPerimeter=0;exitX=0.816;exitY=-0.014;exitDx=0;exitDy=0;exitPerimeter=0;strokeWidth=2;" parent="1" source="R0Js2lqDosAIfEtzN3Xw-97" target="R0Js2lqDosAIfEtzN3Xw-24" edge="1">
          <mxGeometry width="50" height="50" relative="1" as="geometry">
            <mxPoint x="560" y="400" as="sourcePoint" />
            <mxPoint x="610" y="350" as="targetPoint" />
          </mxGeometry>
        </mxCell>
        <mxCell id="R0Js2lqDosAIfEtzN3Xw-49" value="" style="rounded=1;whiteSpace=wrap;html=1;rotation=0;dashed=1;" parent="1" vertex="1">
          <mxGeometry x="531" y="374" width="120" height="60" as="geometry" />
        </mxCell>
        <mxCell id="R0Js2lqDosAIfEtzN3Xw-50" value="" style="rounded=1;whiteSpace=wrap;html=1;rotation=0;dashed=1;" parent="1" vertex="1">
          <mxGeometry x="521" y="394" width="120" height="60" as="geometry" />
        </mxCell>
        <mxCell id="R0Js2lqDosAIfEtzN3Xw-51" value="" style="rounded=1;whiteSpace=wrap;html=1;rotation=0;" parent="1" vertex="1">
          <mxGeometry x="511" y="414" width="120" height="60" as="geometry" />
        </mxCell>
        <mxCell id="R0Js2lqDosAIfEtzN3Xw-52" value="Message" style="text;html=1;align=center;verticalAlign=middle;whiteSpace=wrap;rounded=0;rotation=0;" parent="1" vertex="1">
          <mxGeometry x="541" y="429" width="60" height="30" as="geometry" />
        </mxCell>
        <mxCell id="R0Js2lqDosAIfEtzN3Xw-53" value="MessageDispatcher" style="text;html=1;align=center;verticalAlign=middle;whiteSpace=wrap;rounded=0;fontStyle=1" parent="1" vertex="1">
          <mxGeometry x="451" y="369" width="140" height="30" as="geometry" />
        </mxCell>
        <mxCell id="R0Js2lqDosAIfEtzN3Xw-55" value="" style="rounded=1;whiteSpace=wrap;html=1;rotation=0;dashed=1;" parent="1" vertex="1">
          <mxGeometry x="792" y="373" width="120" height="60" as="geometry" />
        </mxCell>
        <mxCell id="R0Js2lqDosAIfEtzN3Xw-56" value="" style="rounded=1;whiteSpace=wrap;html=1;rotation=0;dashed=1;" parent="1" vertex="1">
          <mxGeometry x="782" y="393" width="120" height="60" as="geometry" />
        </mxCell>
        <mxCell id="R0Js2lqDosAIfEtzN3Xw-57" value="" style="rounded=1;whiteSpace=wrap;html=1;rotation=0;" parent="1" vertex="1">
          <mxGeometry x="772" y="413" width="120" height="60" as="geometry" />
        </mxCell>
        <mxCell id="R0Js2lqDosAIfEtzN3Xw-58" value="Message" style="text;html=1;align=center;verticalAlign=middle;whiteSpace=wrap;rounded=0;rotation=0;" parent="1" vertex="1">
          <mxGeometry x="802" y="425" width="60" height="33" as="geometry" />
        </mxCell>
        <mxCell id="R0Js2lqDosAIfEtzN3Xw-59" value="MessageQueue" style="text;html=1;align=center;verticalAlign=middle;whiteSpace=wrap;rounded=0;fontStyle=1" parent="1" vertex="1">
          <mxGeometry x="712" y="368" width="140" height="30" as="geometry" />
        </mxCell>
        <mxCell id="R0Js2lqDosAIfEtzN3Xw-60" value="" style="rounded=1;whiteSpace=wrap;html=1;shadow=1;strokeWidth=3;fillColor=none;fontColor=#ffffff;strokeColor=#A50040;dashed=1;" parent="1" vertex="1">
          <mxGeometry x="180" y="557" width="220" height="120" as="geometry" />
        </mxCell>
        <mxCell id="R0Js2lqDosAIfEtzN3Xw-61" value="" style="rounded=1;whiteSpace=wrap;html=1;rotation=0;dashed=1;" parent="1" vertex="1">
          <mxGeometry x="260" y="567" width="120" height="60" as="geometry" />
        </mxCell>
        <mxCell id="R0Js2lqDosAIfEtzN3Xw-62" value="" style="rounded=1;whiteSpace=wrap;html=1;rotation=0;dashed=1;" parent="1" vertex="1">
          <mxGeometry x="250" y="587" width="120" height="60" as="geometry" />
        </mxCell>
        <mxCell id="R0Js2lqDosAIfEtzN3Xw-63" value="" style="rounded=1;whiteSpace=wrap;html=1;rotation=0;" parent="1" vertex="1">
          <mxGeometry x="240" y="607" width="120" height="60" as="geometry" />
        </mxCell>
        <mxCell id="R0Js2lqDosAIfEtzN3Xw-64" value="Message" style="text;html=1;align=center;verticalAlign=middle;whiteSpace=wrap;rounded=0;rotation=0;" parent="1" vertex="1">
          <mxGeometry x="270" y="622" width="60" height="30" as="geometry" />
        </mxCell>
        <mxCell id="R0Js2lqDosAIfEtzN3Xw-65" value="MessageProcessor" style="text;html=1;align=center;verticalAlign=middle;whiteSpace=wrap;rounded=0;fontStyle=1" parent="1" vertex="1">
          <mxGeometry x="180" y="562" width="140" height="30" as="geometry" />
        </mxCell>
        <mxCell id="R0Js2lqDosAIfEtzN3Xw-69" value="" style="rounded=1;whiteSpace=wrap;html=1;shadow=1;strokeWidth=3;fillColor=none;fontColor=#ffffff;strokeColor=#3700CC;" parent="1" vertex="1">
          <mxGeometry x="735" y="567.5" width="220" height="120" as="geometry" />
        </mxCell>
        <mxCell id="R0Js2lqDosAIfEtzN3Xw-70" value="" style="rounded=1;whiteSpace=wrap;html=1;rotation=0;dashed=1;" parent="1" vertex="1">
          <mxGeometry x="815" y="577.5" width="120" height="60" as="geometry" />
        </mxCell>
        <mxCell id="R0Js2lqDosAIfEtzN3Xw-71" value="" style="rounded=1;whiteSpace=wrap;html=1;rotation=0;dashed=1;" parent="1" vertex="1">
          <mxGeometry x="805" y="597.5" width="120" height="60" as="geometry" />
        </mxCell>
        <mxCell id="R0Js2lqDosAIfEtzN3Xw-72" value="" style="rounded=1;whiteSpace=wrap;html=1;rotation=0;" parent="1" vertex="1">
          <mxGeometry x="795" y="617.5" width="120" height="60" as="geometry" />
        </mxCell>
        <mxCell id="R0Js2lqDosAIfEtzN3Xw-73" value="Message" style="text;html=1;align=center;verticalAlign=middle;whiteSpace=wrap;rounded=0;rotation=0;" parent="1" vertex="1">
          <mxGeometry x="825" y="632.5" width="60" height="30" as="geometry" />
        </mxCell>
        <mxCell id="R0Js2lqDosAIfEtzN3Xw-74" value="Message Transport" style="text;html=1;align=center;verticalAlign=middle;whiteSpace=wrap;rounded=0;fontStyle=1" parent="1" vertex="1">
          <mxGeometry x="735" y="572.5" width="140" height="30" as="geometry" />
        </mxCell>
        <mxCell id="R0Js2lqDosAIfEtzN3Xw-75" value="" style="ellipse;shape=cloud;whiteSpace=wrap;html=1;fillColor=none;fontColor=#ffffff;strokeColor=#000000;strokeWidth=3;shadow=1;" parent="1" vertex="1">
          <mxGeometry x="1000" y="582.5" width="120" height="80" as="geometry" />
        </mxCell>
        <mxCell id="R0Js2lqDosAIfEtzN3Xw-84" value="GCP" style="text;html=1;align=center;verticalAlign=middle;whiteSpace=wrap;rounded=0;fontStyle=1" parent="1" vertex="1">
          <mxGeometry x="1030" y="609.5" width="60" height="30" as="geometry" />
        </mxCell>
        <mxCell id="R0Js2lqDosAIfEtzN3Xw-85" value="Python" style="text;html=1;align=left;verticalAlign=middle;whiteSpace=wrap;rounded=0;" parent="1" vertex="1">
          <mxGeometry x="30" y="720" width="60" height="30" as="geometry" />
        </mxCell>
        <mxCell id="R0Js2lqDosAIfEtzN3Xw-86" value="C/C++" style="text;html=1;align=left;verticalAlign=middle;whiteSpace=wrap;rounded=0;" parent="1" vertex="1">
          <mxGeometry x="30" y="780" width="120" height="30" as="geometry" />
        </mxCell>
        <mxCell id="R0Js2lqDosAIfEtzN3Xw-87" value="Telegraf (Go)" style="text;html=1;align=left;verticalAlign=middle;whiteSpace=wrap;rounded=0;" parent="1" vertex="1">
          <mxGeometry x="30" y="750" width="90" height="30" as="geometry" />
        </mxCell>
        <mxCell id="R0Js2lqDosAIfEtzN3Xw-88" value="" style="endArrow=none;html=1;rounded=0;fillColor=#6a00ff;strokeColor=#3700CC;strokeWidth=3;" parent="1" edge="1">
          <mxGeometry width="50" height="50" relative="1" as="geometry">
            <mxPoint x="140" y="764.5" as="sourcePoint" />
            <mxPoint x="230" y="764.5" as="targetPoint" />
            <Array as="points" />
          </mxGeometry>
        </mxCell>
        <mxCell id="R0Js2lqDosAIfEtzN3Xw-89" value="" style="endArrow=none;html=1;rounded=0;dashed=1;strokeWidth=4;fillColor=#008a00;strokeColor=#005700;" parent="1" edge="1">
          <mxGeometry width="50" height="50" relative="1" as="geometry">
            <mxPoint x="140" y="790" as="sourcePoint" />
            <mxPoint x="230" y="790" as="targetPoint" />
            <Array as="points" />
          </mxGeometry>
        </mxCell>
        <mxCell id="R0Js2lqDosAIfEtzN3Xw-90" value="" style="endArrow=none;html=1;rounded=0;strokeWidth=3;fillColor=#d80073;strokeColor=#A50040;" parent="1" edge="1">
          <mxGeometry width="50" height="50" relative="1" as="geometry">
            <mxPoint x="140" y="736" as="sourcePoint" />
            <mxPoint x="230" y="736" as="targetPoint" />
            <Array as="points" />
          </mxGeometry>
        </mxCell>
        <mxCell id="R0Js2lqDosAIfEtzN3Xw-91" value="" style="rounded=1;whiteSpace=wrap;html=1;shadow=1;strokeWidth=3;fillColor=default;fontColor=#ffffff;strokeColor=#A50040;" parent="1" vertex="1">
          <mxGeometry x="461" y="374" width="220" height="120" as="geometry" />
        </mxCell>
        <mxCell id="R0Js2lqDosAIfEtzN3Xw-92" value="" style="rounded=1;whiteSpace=wrap;html=1;rotation=0;dashed=1;" parent="1" vertex="1">
          <mxGeometry x="541" y="384" width="120" height="60" as="geometry" />
        </mxCell>
        <mxCell id="R0Js2lqDosAIfEtzN3Xw-93" value="" style="rounded=1;whiteSpace=wrap;html=1;rotation=0;dashed=1;" parent="1" vertex="1">
          <mxGeometry x="531" y="404" width="120" height="60" as="geometry" />
        </mxCell>
        <mxCell id="R0Js2lqDosAIfEtzN3Xw-94" value="" style="rounded=1;whiteSpace=wrap;html=1;rotation=0;" parent="1" vertex="1">
          <mxGeometry x="521" y="424" width="120" height="60" as="geometry" />
        </mxCell>
        <mxCell id="R0Js2lqDosAIfEtzN3Xw-95" value="Message" style="text;html=1;align=center;verticalAlign=middle;whiteSpace=wrap;rounded=0;rotation=0;" parent="1" vertex="1">
          <mxGeometry x="551" y="439" width="60" height="30" as="geometry" />
        </mxCell>
        <mxCell id="R0Js2lqDosAIfEtzN3Xw-96" value="Message Filter" style="text;html=1;align=center;verticalAlign=middle;whiteSpace=wrap;rounded=0;fontStyle=1" parent="1" vertex="1">
          <mxGeometry x="461" y="379" width="140" height="30" as="geometry" />
        </mxCell>
        <mxCell id="R0Js2lqDosAIfEtzN3Xw-97" value="" style="rounded=1;whiteSpace=wrap;html=1;shadow=1;strokeWidth=3;fillColor=default;fontColor=#ffffff;strokeColor=#A50040;" parent="1" vertex="1">
          <mxGeometry x="732" y="369" width="220" height="120" as="geometry" />
        </mxCell>
        <mxCell id="R0Js2lqDosAIfEtzN3Xw-98" value="" style="rounded=1;whiteSpace=wrap;html=1;rotation=0;dashed=1;" parent="1" vertex="1">
          <mxGeometry x="802" y="383" width="120" height="60" as="geometry" />
        </mxCell>
        <mxCell id="R0Js2lqDosAIfEtzN3Xw-99" value="" style="rounded=1;whiteSpace=wrap;html=1;rotation=0;dashed=1;" parent="1" vertex="1">
          <mxGeometry x="792" y="403" width="120" height="60" as="geometry" />
        </mxCell>
        <mxCell id="R0Js2lqDosAIfEtzN3Xw-100" value="" style="rounded=1;whiteSpace=wrap;html=1;rotation=0;" parent="1" vertex="1">
          <mxGeometry x="782" y="423" width="120" height="60" as="geometry" />
        </mxCell>
        <mxCell id="R0Js2lqDosAIfEtzN3Xw-101" value="Message" style="text;html=1;align=center;verticalAlign=middle;whiteSpace=wrap;rounded=0;rotation=0;" parent="1" vertex="1">
          <mxGeometry x="812" y="435" width="60" height="33" as="geometry" />
        </mxCell>
        <mxCell id="R0Js2lqDosAIfEtzN3Xw-102" value="Inbound Message Queue" style="text;html=1;align=center;verticalAlign=middle;whiteSpace=wrap;rounded=0;fontStyle=1" parent="1" vertex="1">
          <mxGeometry x="722" y="378" width="140" height="30" as="geometry" />
        </mxCell>
        <mxCell id="R0Js2lqDosAIfEtzN3Xw-104" value="" style="rounded=1;whiteSpace=wrap;html=1;rotation=0;dashed=1;" parent="1" vertex="1">
          <mxGeometry x="270" y="577" width="120" height="60" as="geometry" />
        </mxCell>
        <mxCell id="R0Js2lqDosAIfEtzN3Xw-103" value="" style="rounded=1;whiteSpace=wrap;html=1;shadow=1;strokeWidth=3;fillColor=default;fontColor=#ffffff;strokeColor=#A50040;" parent="1" vertex="1">
          <mxGeometry x="190" y="567" width="220" height="120" as="geometry" />
        </mxCell>
        <mxCell id="R0Js2lqDosAIfEtzN3Xw-105" value="" style="rounded=1;whiteSpace=wrap;html=1;rotation=0;dashed=1;" parent="1" vertex="1">
          <mxGeometry x="260" y="597" width="120" height="60" as="geometry" />
        </mxCell>
        <mxCell id="R0Js2lqDosAIfEtzN3Xw-106" value="" style="rounded=1;whiteSpace=wrap;html=1;rotation=0;" parent="1" vertex="1">
          <mxGeometry x="250" y="617" width="120" height="60" as="geometry" />
        </mxCell>
        <mxCell id="R0Js2lqDosAIfEtzN3Xw-107" value="Message" style="text;html=1;align=center;verticalAlign=middle;whiteSpace=wrap;rounded=0;rotation=0;" parent="1" vertex="1">
          <mxGeometry x="280" y="632" width="60" height="30" as="geometry" />
        </mxCell>
        <mxCell id="R0Js2lqDosAIfEtzN3Xw-108" value="Message Dispatcher" style="text;html=1;align=center;verticalAlign=middle;whiteSpace=wrap;rounded=0;fontStyle=1" parent="1" vertex="1">
          <mxGeometry x="190" y="572" width="140" height="30" as="geometry" />
        </mxCell>
        <mxCell id="R0Js2lqDosAIfEtzN3Xw-109" value="" style="endArrow=none;startArrow=classic;html=1;rounded=0;entryX=0;entryY=0.5;entryDx=0;entryDy=0;strokeWidth=2;startFill=0;" parent="1" target="R0Js2lqDosAIfEtzN3Xw-97" edge="1">
          <mxGeometry width="50" height="50" relative="1" as="geometry">
            <mxPoint x="678" y="430" as="sourcePoint" />
            <mxPoint x="841" y="260" as="targetPoint" />
          </mxGeometry>
        </mxCell>
        <mxCell id="R0Js2lqDosAIfEtzN3Xw-110" value="" style="endArrow=none;startArrow=classic;html=1;rounded=0;entryX=0;entryY=0.5;entryDx=0;entryDy=0;exitX=1;exitY=0.5;exitDx=0;exitDy=0;strokeWidth=2;startFill=0;" parent="1" target="R0Js2lqDosAIfEtzN3Xw-91" edge="1">
          <mxGeometry width="50" height="50" relative="1" as="geometry">
            <mxPoint x="410" y="434" as="sourcePoint" />
            <mxPoint x="298" y="265" as="targetPoint" />
          </mxGeometry>
        </mxCell>
        <mxCell id="R0Js2lqDosAIfEtzN3Xw-132" value="" style="rounded=1;whiteSpace=wrap;html=1;rotation=0;dashed=1;" parent="1" vertex="1">
          <mxGeometry x="528" y="567.5" width="120" height="60" as="geometry" />
        </mxCell>
        <mxCell id="R0Js2lqDosAIfEtzN3Xw-133" value="" style="rounded=1;whiteSpace=wrap;html=1;rotation=0;dashed=1;" parent="1" vertex="1">
          <mxGeometry x="518" y="587.5" width="120" height="60" as="geometry" />
        </mxCell>
        <mxCell id="R0Js2lqDosAIfEtzN3Xw-134" value="" style="rounded=1;whiteSpace=wrap;html=1;rotation=0;" parent="1" vertex="1">
          <mxGeometry x="508" y="607.5" width="120" height="60" as="geometry" />
        </mxCell>
        <mxCell id="R0Js2lqDosAIfEtzN3Xw-135" value="Message" style="text;html=1;align=center;verticalAlign=middle;whiteSpace=wrap;rounded=0;rotation=0;" parent="1" vertex="1">
          <mxGeometry x="538" y="622.5" width="60" height="30" as="geometry" />
        </mxCell>
        <mxCell id="R0Js2lqDosAIfEtzN3Xw-136" value="MessageDispatcher" style="text;html=1;align=center;verticalAlign=middle;whiteSpace=wrap;rounded=0;fontStyle=1" parent="1" vertex="1">
          <mxGeometry x="448" y="562.5" width="140" height="30" as="geometry" />
        </mxCell>
        <mxCell id="R0Js2lqDosAIfEtzN3Xw-137" value="" style="rounded=1;whiteSpace=wrap;html=1;shadow=1;strokeWidth=3;fillColor=default;fontColor=#ffffff;strokeColor=#A50040;" parent="1" vertex="1">
          <mxGeometry x="458" y="567.5" width="220" height="120" as="geometry" />
        </mxCell>
        <mxCell id="R0Js2lqDosAIfEtzN3Xw-138" value="" style="rounded=1;whiteSpace=wrap;html=1;rotation=0;dashed=1;" parent="1" vertex="1">
          <mxGeometry x="538" y="577.5" width="120" height="60" as="geometry" />
        </mxCell>
        <mxCell id="R0Js2lqDosAIfEtzN3Xw-139" value="" style="rounded=1;whiteSpace=wrap;html=1;rotation=0;dashed=1;" parent="1" vertex="1">
          <mxGeometry x="528" y="597.5" width="120" height="60" as="geometry" />
        </mxCell>
        <mxCell id="R0Js2lqDosAIfEtzN3Xw-140" value="" style="rounded=1;whiteSpace=wrap;html=1;rotation=0;" parent="1" vertex="1">
          <mxGeometry x="518" y="617.5" width="120" height="60" as="geometry" />
        </mxCell>
        <mxCell id="R0Js2lqDosAIfEtzN3Xw-141" value="Message" style="text;html=1;align=center;verticalAlign=middle;whiteSpace=wrap;rounded=0;rotation=0;" parent="1" vertex="1">
          <mxGeometry x="548" y="632.5" width="60" height="30" as="geometry" />
        </mxCell>
        <mxCell id="R0Js2lqDosAIfEtzN3Xw-142" value="Unix Socket Handler" style="text;html=1;align=center;verticalAlign=middle;whiteSpace=wrap;rounded=0;fontStyle=1" parent="1" vertex="1">
          <mxGeometry x="458" y="572.5" width="170" height="30" as="geometry" />
        </mxCell>
        <mxCell id="R0Js2lqDosAIfEtzN3Xw-143" value="" style="endArrow=none;startArrow=classic;html=1;rounded=0;entryX=1;entryY=0.5;entryDx=0;entryDy=0;exitX=0;exitY=0.5;exitDx=0;exitDy=0;strokeWidth=2;startFill=0;" parent="1" source="R0Js2lqDosAIfEtzN3Xw-137" target="R0Js2lqDosAIfEtzN3Xw-103" edge="1">
          <mxGeometry width="50" height="50" relative="1" as="geometry">
            <mxPoint x="510" y="420" as="sourcePoint" />
            <mxPoint x="560" y="370" as="targetPoint" />
          </mxGeometry>
        </mxCell>
        <mxCell id="R0Js2lqDosAIfEtzN3Xw-144" value="" style="endArrow=classic;startArrow=none;html=1;rounded=0;entryX=0;entryY=0.5;entryDx=0;entryDy=0;exitX=1;exitY=0.5;exitDx=0;exitDy=0;strokeWidth=2;startFill=0;" parent="1" source="R0Js2lqDosAIfEtzN3Xw-137" target="R0Js2lqDosAIfEtzN3Xw-69" edge="1">
          <mxGeometry width="50" height="50" relative="1" as="geometry">
            <mxPoint x="510" y="420" as="sourcePoint" />
            <mxPoint x="560" y="370" as="targetPoint" />
          </mxGeometry>
        </mxCell>
        <mxCell id="R0Js2lqDosAIfEtzN3Xw-147" value="TCP" style="text;html=1;align=center;verticalAlign=middle;whiteSpace=wrap;rounded=0;fontStyle=1" parent="1" vertex="1">
          <mxGeometry x="532" y="89" width="60" height="30" as="geometry" />
        </mxCell>
        <mxCell id="R0Js2lqDosAIfEtzN3Xw-76" value="" style="shape=cylinder3;whiteSpace=wrap;html=1;boundedLbl=1;backgroundOutline=1;size=15;strokeWidth=3;fillColor=default;fontColor=#ffffff;strokeColor=#3700CC;textShadow=1;shadow=1;" parent="1" vertex="1">
          <mxGeometry x="923" y="657.5" width="60" height="80" as="geometry" />
        </mxCell>
        <mxCell id="R0Js2lqDosAIfEtzN3Xw-83" value="Influx" style="text;html=1;align=center;verticalAlign=middle;whiteSpace=wrap;rounded=0;fontStyle=1;shadow=1;fillColor=none;" parent="1" vertex="1">
          <mxGeometry x="923" y="687.5" width="60" height="30" as="geometry" />
        </mxCell>
        <mxCell id="sInuWgfTN_hbzSe1saAp-8" value="" style="rounded=1;whiteSpace=wrap;html=1;shadow=1;strokeWidth=3;fillColor=none;fontColor=#ffffff;strokeColor=#A50040;dashed=1;" parent="1" vertex="1">
          <mxGeometry x="631" y="200" width="240" height="110" as="geometry" />
        </mxCell>
        <mxCell id="sInuWgfTN_hbzSe1saAp-9" value="" style="rounded=1;whiteSpace=wrap;html=1;shadow=1;strokeWidth=3;fillColor=default;fontColor=#ffffff;strokeColor=#A50040;dashed=1;" parent="1" vertex="1">
          <mxGeometry x="621" y="214" width="240" height="110" as="geometry" />
        </mxCell>
        <mxCell id="sInuWgfTN_hbzSe1saAp-10" value="" style="rounded=1;whiteSpace=wrap;html=1;shadow=1;strokeWidth=3;fillColor=default;fontColor=#ffffff;strokeColor=#A50040;" parent="1" vertex="1">
          <mxGeometry x="611" y="228" width="240" height="110" as="geometry" />
        </mxCell>
        <mxCell id="sInuWgfTN_hbzSe1saAp-14" value="" style="rounded=1;whiteSpace=wrap;html=1;rotation=0;" parent="1" vertex="1">
          <mxGeometry x="653" y="258" width="120" height="60" as="geometry" />
        </mxCell>
        <mxCell id="sInuWgfTN_hbzSe1saAp-11" value="" style="rounded=1;whiteSpace=wrap;html=1;rotation=0;" parent="1" vertex="1">
          <mxGeometry x="641" y="268" width="120" height="60" as="geometry" />
        </mxCell>
        <mxCell id="sInuWgfTN_hbzSe1saAp-12" value="Message" style="text;html=1;align=center;verticalAlign=middle;whiteSpace=wrap;rounded=0;rotation=0;" parent="1" vertex="1">
          <mxGeometry x="671" y="283" width="60" height="30" as="geometry" />
        </mxCell>
        <mxCell id="sInuWgfTN_hbzSe1saAp-13" value="Outbound Message Queue" style="text;html=1;align=center;verticalAlign=middle;whiteSpace=wrap;rounded=0;fontStyle=1" parent="1" vertex="1">
          <mxGeometry x="623" y="230" width="187" height="30" as="geometry" />
        </mxCell>
        <mxCell id="sInuWgfTN_hbzSe1saAp-19" style="rounded=0;orthogonalLoop=1;jettySize=auto;html=1;exitX=0;exitY=0.5;exitDx=0;exitDy=0;entryX=-0.004;entryY=0.827;entryDx=0;entryDy=0;entryPerimeter=0;strokeColor=default;strokeWidth=2;align=center;verticalAlign=middle;fontFamily=Helvetica;fontSize=11;fontColor=default;labelBackgroundColor=default;startArrow=none;startFill=0;endArrow=classic;endFill=1;edgeStyle=orthogonalEdgeStyle;" parent="1" source="R0Js2lqDosAIfEtzN3Xw-103" target="sInuWgfTN_hbzSe1saAp-10" edge="1">
          <mxGeometry relative="1" as="geometry">
            <Array as="points">
              <mxPoint x="190" y="630" />
              <mxPoint x="110" y="630" />
              <mxPoint x="110" y="319" />
            </Array>
          </mxGeometry>
        </mxCell>
        <mxCell id="sInuWgfTN_hbzSe1saAp-21" value="" style="rounded=1;whiteSpace=wrap;html=1;rotation=0;dashed=1;" parent="1" vertex="1">
          <mxGeometry x="250" y="379" width="120" height="60" as="geometry" />
        </mxCell>
        <mxCell id="sInuWgfTN_hbzSe1saAp-22" value="" style="rounded=1;whiteSpace=wrap;html=1;rotation=0;dashed=1;" parent="1" vertex="1">
          <mxGeometry x="240" y="399" width="120" height="60" as="geometry" />
        </mxCell>
        <mxCell id="sInuWgfTN_hbzSe1saAp-23" value="" style="rounded=1;whiteSpace=wrap;html=1;rotation=0;" parent="1" vertex="1">
          <mxGeometry x="230" y="419" width="120" height="60" as="geometry" />
        </mxCell>
        <mxCell id="sInuWgfTN_hbzSe1saAp-24" value="Message" style="text;html=1;align=center;verticalAlign=middle;whiteSpace=wrap;rounded=0;rotation=0;" parent="1" vertex="1">
          <mxGeometry x="260" y="431" width="60" height="33" as="geometry" />
        </mxCell>
        <mxCell id="sInuWgfTN_hbzSe1saAp-25" value="MessageQueue" style="text;html=1;align=center;verticalAlign=middle;whiteSpace=wrap;rounded=0;fontStyle=1" parent="1" vertex="1">
          <mxGeometry x="170" y="374" width="140" height="30" as="geometry" />
        </mxCell>
        <mxCell id="sInuWgfTN_hbzSe1saAp-35" style="edgeStyle=orthogonalEdgeStyle;rounded=0;orthogonalLoop=1;jettySize=auto;html=1;exitX=0.5;exitY=1;exitDx=0;exitDy=0;entryX=0.5;entryY=0;entryDx=0;entryDy=0;strokeColor=default;strokeWidth=2;align=center;verticalAlign=middle;fontFamily=Helvetica;fontSize=11;fontColor=default;labelBackgroundColor=default;startArrow=none;startFill=0;endArrow=classic;endFill=1;" parent="1" source="sInuWgfTN_hbzSe1saAp-26" target="R0Js2lqDosAIfEtzN3Xw-103" edge="1">
          <mxGeometry relative="1" as="geometry" />
        </mxCell>
        <mxCell id="sInuWgfTN_hbzSe1saAp-26" value="" style="rounded=1;whiteSpace=wrap;html=1;shadow=1;strokeWidth=3;fillColor=default;fontColor=#ffffff;strokeColor=#A50040;" parent="1" vertex="1">
          <mxGeometry x="190" y="375" width="220" height="120" as="geometry" />
        </mxCell>
        <mxCell id="sInuWgfTN_hbzSe1saAp-27" value="" style="rounded=1;whiteSpace=wrap;html=1;rotation=0;dashed=1;" parent="1" vertex="1">
          <mxGeometry x="260" y="389" width="120" height="60" as="geometry" />
        </mxCell>
        <mxCell id="sInuWgfTN_hbzSe1saAp-28" value="" style="rounded=1;whiteSpace=wrap;html=1;rotation=0;dashed=1;" parent="1" vertex="1">
          <mxGeometry x="250" y="409" width="120" height="60" as="geometry" />
        </mxCell>
        <mxCell id="sInuWgfTN_hbzSe1saAp-29" value="" style="rounded=1;whiteSpace=wrap;html=1;rotation=0;" parent="1" vertex="1">
          <mxGeometry x="240" y="429" width="120" height="60" as="geometry" />
        </mxCell>
        <mxCell id="sInuWgfTN_hbzSe1saAp-30" value="Message" style="text;html=1;align=center;verticalAlign=middle;whiteSpace=wrap;rounded=0;rotation=0;" parent="1" vertex="1">
          <mxGeometry x="270" y="441" width="60" height="33" as="geometry" />
        </mxCell>
        <mxCell id="sInuWgfTN_hbzSe1saAp-31" value="Outbound Filter Queue" style="text;html=1;align=center;verticalAlign=middle;whiteSpace=wrap;rounded=0;fontStyle=1" parent="1" vertex="1">
          <mxGeometry x="199" y="384" width="140" height="30" as="geometry" />
        </mxCell>
        <mxCell id="sInuWgfTN_hbzSe1saAp-33" style="rounded=0;orthogonalLoop=1;jettySize=auto;html=1;exitX=1;exitY=0.5;exitDx=0;exitDy=0;entryX=0.16;entryY=0.55;entryDx=0;entryDy=0;entryPerimeter=0;strokeColor=default;strokeWidth=2;align=center;verticalAlign=middle;fontFamily=Helvetica;fontSize=11;fontColor=default;labelBackgroundColor=default;startArrow=none;startFill=0;endArrow=classic;" parent="1" source="R0Js2lqDosAIfEtzN3Xw-69" target="R0Js2lqDosAIfEtzN3Xw-75" edge="1">
          <mxGeometry relative="1" as="geometry" />
        </mxCell>
        <mxCell id="sInuWgfTN_hbzSe1saAp-34" value="TCP" style="text;html=1;align=center;verticalAlign=middle;whiteSpace=wrap;rounded=0;fontStyle=1" parent="1" vertex="1">
          <mxGeometry x="955" y="592.5" width="60" height="30" as="geometry" />
        </mxCell>
        <mxCell id="ctte-BTYTsKMvIZWDoI4-7" style="edgeStyle=orthogonalEdgeStyle;rounded=0;orthogonalLoop=1;jettySize=auto;html=1;exitX=0.668;exitY=0;exitDx=0;exitDy=0;strokeColor=default;strokeWidth=2;align=center;verticalAlign=middle;fontFamily=Helvetica;fontSize=11;fontColor=default;labelBackgroundColor=default;startArrow=none;startFill=0;endArrow=classic;endFill=1;exitPerimeter=0;" parent="1" edge="1">
          <mxGeometry relative="1" as="geometry">
            <mxPoint x="804.3199999999999" y="228" as="sourcePoint" />
            <mxPoint x="804" y="180" as="targetPoint" />
            <Array as="points">
              <mxPoint x="804" y="210" />
              <mxPoint x="804" y="210" />
            </Array>
          </mxGeometry>
        </mxCell>
      </root>
    </mxGraphModel>
  </diagram>
</mxfile>
